<?xml version="1.0" encoding="UTF-8"?>
<svg width="134px" height="134px" viewBox="0 0 134 134" version="1.1" xmlns="http://www.w3.org/2000/svg" xmlns:xlink="http://www.w3.org/1999/xlink">
    <!-- Generator: Sketch 63 (92445) - https://sketch.com -->
    <title>矩形备份 8</title>
    <desc>Created with Sketch.</desc>
    <g id="页面-1" stroke="none" stroke-width="1" fill="none" fill-rule="evenodd">
        <g id="智能物流解决方案1609986150743" transform="translate(1.000000, 1.000000)" fill="#FFFFFF" fill-rule="nonzero">
            <g id="编组" transform="translate(9.250000, 11.000000)">
                <path d="M45.8655,16.995 C47.5925,21.93125 52.251,25.5035 57.773,25.5035 C64.758,25.5035 70.4395,19.82475 70.434004,12.83975 C70.434004,5.85475 64.76625,0.176 57.773,0.176 C51.24725,0.176 45.926,5.15075 45.244,11.495 C23.6235,16.63475 8.02275,35.3265 7.03825,57.7335 L12.53275,57.97 C13.399,38.269 26.97575,21.78275 45.8655,16.995 Z M57.773,5.67325 C61.72475,5.67325 64.934,8.89075 64.934,12.83975 C64.934,16.78875 61.722,20.00625 57.773,20.00625 C53.82675,20.00625 50.60925,16.78875 50.60925,12.83975 C50.60925,8.89075 53.82125,5.67325 57.773,5.67325 Z" id="形状"></path>
                <path d="M56.85725,104.324 C42.8735,104.324 29.83575,97.79 21.45375,86.6965 C24.12125,84.32875 25.70525,80.92975 25.70525,77.2475 C25.70525,70.26525 20.02375,64.58375 13.0415,64.58375 C6.05375,64.58375 0.37225,70.26525 0.37225,77.2475 C0.37225,84.23525 6.05375,89.91675 13.0415,89.91675 C14.257,89.91675 15.4615,89.7215 16.622,89.37775 C26.01325,102.223 40.8825,109.824 56.85725,109.824 C69.53475,109.824 81.6265,105.0555 90.8885,96.40675 L87.13475,92.389 C78.90125,100.08625 68.14325,104.324 56.85725,104.324 Z M5.875,77.2365 C5.875,73.2875 9.08975,70.0755 13.04425,70.0755 C16.99325,70.0755 20.21075,73.2875 20.2080018,77.23375 C20.2080018,79.91775 18.73125,82.35975 16.347,83.5945 C15.31575,84.128 14.20475,84.40575 13.04425,84.40575 C9.08975,84.40575 5.875,81.18275 5.875,77.2365 Z" id="形状"></path>
                <path d="M106.30775,66.04125 C106.5525,64.03375 106.71475,62.0015 106.71475,59.96375 C106.71475,41.173 96.328,24.16425 79.608,15.576 L77.0945,20.4655 C91.972,28.10775 101.21475,43.23825 101.21475,59.95275 C101.21475,61.52025 101.1075,63.07675 100.94525,64.61675 C100.78025,64.61125 100.62075,64.581 100.45575,64.581 C93.479,64.581 87.79475,70.2625 87.79475,77.24475 C87.79475,84.2325 93.47625,89.914 100.45575,89.914 C107.438,89.914 113.119508,84.227 113.119508,77.24475 C113.125,72.512 110.41075,68.1945 106.30775,66.04125 Z M100.46125,84.40575 C96.51775,84.40575 93.30025,81.18275 93.30025,77.2365 C93.30025,73.29025 96.50675,70.0755 100.46125,70.0755 C101.16525,70.0755 101.86375,70.18275 102.53475,70.38625 C105.53225,71.27175 107.62775,74.08775 107.62775,77.23375 C107.625,81.18275 104.4185,84.40575 100.46125,84.40575 Z" id="形状"></path>
            </g>
        </g>
        <g id="农业" transform="translate(51.000000, 60.000000)" fill="#FFFFFF" fill-rule="nonzero">
            <path d="M16.3787192,34.711039 L15.9870694,34.6623377 C16.9172377,17.1785714 26.8553509,9.58116883 27.2470006,9.28896104 C27.7855191,9.04545455 28.0792564,8.50974026 27.981344,7.97402597 L27.981344,7.87662338 L27.981344,7.77922078 C27.7855191,7.29220779 27.3449131,7 26.8553509,7 C26.8063946,7 26.7084822,7 26.5616135,7.0487013 C26.0720513,7.19480519 23.1346779,9.33766234 20.1483484,13.8668831 C17.5047123,17.8603896 14.2736016,24.7272727 13.7840394,34.6136364 L16.3787192,34.711039 Z" id="路径"></path>
            <path d="M35.9874145,2.07228916 L35.9874145,1.39759036 C35.9874145,1.30120482 35.9396225,1.20481928 35.7962463,1.15662651 L35.1271576,0.963855422 L35.0315735,0.915662651 C33.2154755,0.289156627 31.3993776,0 29.4399035,0 C26.0466679,0 22.9401846,1.01204819 20.4549979,2.84337349 C16.1059212,5.97590361 13.7641107,11.5180723 13.4773584,19.373494 C3.82336409,16.7228916 2.58077076,5.73493976 2.43739461,3.03614458 C3.29765153,2.84337349 4.77920511,2.60240964 6.54751101,2.60240964 C9.17607382,2.60240964 12.8082697,3.22891566 15.2456643,6.1686747 C15.4368325,6.40963855 15.8191689,6.60240964 16.1537133,6.60240964 C16.3926735,6.60240964 16.6316338,6.5060241 16.8705941,6.36144578 C17.1095543,6.1686747 17.2529305,5.87951807 17.3007225,5.54216867 C17.3485146,5.20481928 17.2529305,4.91566265 17.0617623,4.6746988 C14.050863,0.963855422 9.65399433,0.192771084 6.54751101,0.192771084 C3.29765153,0.192771084 0.955841023,0.963855422 0.860256921,0.963855422 L0.191168205,1.25301205 C0.0955841023,1.30120482 0,1.39759036 0,1.4939759 L0,2.21686747 C0,2.40963855 0.143376153,19.5180723 14.4331994,22.1204819 L14.5765756,22.1204819 C14.6721597,22.1204819 14.7677438,22.1204819 14.91112,22.0722892 L15.0067041,22.0722892 C15.0544961,22.0722892 15.1500802,22.0240964 15.1978723,22.0240964 C15.2934564,22.0240964 15.3412484,21.9759036 15.3890405,21.9277108 L15.6280007,21.5903614 C15.6757928,21.5421687 15.6757928,21.4939759 15.6757928,21.4457831 L15.6757928,21.3975904 L15.6757928,21.3493976 C15.7235848,21.3012048 15.7235848,21.253012 15.7235848,21.2048193 L15.7235848,21.0120482 C15.7235848,13.2048193 17.730851,7.80722892 21.6497992,4.91566265 C23.8960256,3.27710843 26.4290043,2.45783133 29.2487353,2.45783133 C30.6347048,2.45783133 32.0684663,2.65060241 33.5500199,3.03614458 C33.597812,7.03614458 32.4030107,19.4698795 19.3557807,21.5903614 C19.0690284,21.6385542 18.7822761,21.7831325 18.5433158,22.1204819 C18.3999397,22.3614458 18.3521476,22.6987952 18.3999397,22.939759 C18.4477317,23.4698795 18.8778602,23.9036145 19.4035728,23.9518072 C19.4513648,24 19.4991569,24 19.5469489,24 L19.7381171,24 C36.6087112,21.2048193 36.0352066,2.84337349 35.9874145,2.07228916 Z" id="路径"></path>
        </g>
    </g>
</svg>